PathFileType	4	(X/Y/Z)	Patient4_TMGait_0pt2_01_left_14.trc.trc
DataRate	CameraRate	NumFrames	NumMarkers	Units	OrigDataRate	OrigDataStartFrame	OrigNumFrames
43.613707165109	43.613707165109	6	33	mm	43.613707165109	36	       141
Frame#	Time	Sacral			L.Shoulder			Chest			R.Shoulder			Neck			R.ASIS			L.ASIS			R.Thigh.Superior			R.Thigh.Lateral			R.Thigh.Inferior			R.Patella			L.Thigh.Superior			L.Thigh.Lateral			L.Thigh.Inferior			L.Patella			L.Shank.Superior			L.Shank.Lateral			L.Shank.Inferior			R.Shank.Superior			R.Shank.Lateral			R.Shank.Inferior			R.Heel			R.Midfoot.Superior			R.Midfoot.Lateral			R.Toe			L.Heel			L.Midfoot.Lateral			L.Midfoot.Superior			L.Toe			L.Elbow			L.Wrist			R.Elbow			R.Wrist			
		X1	Y1	Z1	X2	Y2	Z2	X3	Y3	Z3	X4	Y4	Z4	X5	Y5	Z5	X6	Y6	Z6	X7	Y7	Z7	X8	Y8	Z8	X9	Y9	Z9	X10	Y10	Z10	X11	Y11	Z11	X12	Y12	Z12	X13	Y13	Z13	X14	Y14	Z14	X15	Y15	Z15	X16	Y16	Z16	X17	Y17	Z17	X18	Y18	Z18	X19	Y19	Z19	X20	Y20	Z20	X21	Y21	Z21	X22	Y22	Z22	X23	Y23	Z23	X24	Y24	Z24	X25	Y25	Z25	X26	Y26	Z26	X27	Y27	Z27	X28	Y28	Z28	X29	Y29	Z29	X30	Y30	Z30	X31	Y31	Z31	X32	Y32	Z32	X33	Y33	Z33	

36	32.712500000000	638.125536671296	1000.891908315948	542.032090545660	768.987277961980	1422.073961738362	324.667654329044	907.694740867928	1353.718977852953	457.298831576970	870.016815405078	1430.151127541387	644.241658553808	789.587657289885	1487.109955121006	480.738393946013	882.011749026088	927.073118306353	615.795816551002	822.298982189201	958.233784345616	348.080037427437	879.920550951399	715.765149027976	583.949274988727	786.009213456391	616.361581138796	653.357988864234	841.172680854485	553.930422516764	566.767346758607	822.404529598100	461.549418964801	575.161764688410	898.552073590690	765.587334510221	377.872190595120	832.472289435204	634.898450534910	310.853911519400	931.457715171287	572.055872342286	369.342620453457	943.734496148201	501.148396402906	371.545008006159	922.132715341629	427.852664272830	359.722208775934	842.479550553720	309.875956235075	301.962409967762	903.835009267096	198.051074845625	362.982049975917	766.539183512695	382.997208921355	585.313304034061	672.502017549062	304.414492799829	655.313075355728	679.660375356188	202.230963818442	591.065015320527	504.752425125112	63.935271363550	571.010624381800	680.839519644464	99.069440787354	602.692912281103	588.561368108889	47.000371647977	642.298734621570	794.892111902168	36.881816411766	628.547193902885	785.106589397797	38.961518663821	393.471776998817	860.756707542719	36.257592548239	314.462851609326	944.140749225059	97.041092028224	342.799999840023	1072.257719065307	44.134945842488	315.926726279355	644.233271093061	1086.822151040147	249.593714905882	627.608469786248	828.052943641056	286.539069234024	1063.321031055284	1142.889026896856	727.787934647853	1301.242342675253	1175.765644149738	636.016615059257	
37	32.735428571429	639.838219546111	1001.796363400783	534.985796924480	772.401596027701	1422.960985950745	319.108717161572	909.901237893247	1354.536213437568	452.922236293404	870.654784494965	1430.790800145582	639.612896693482	791.555675816755	1487.929566438582	475.591587984144	883.048318091214	927.797276249181	610.935778100085	825.592353120008	958.846905497577	342.742126605633	879.886513728553	716.227560353288	580.508217412633	784.947041259755	617.903766992331	650.213918638850	840.359099349217	554.413394973479	564.531094851466	821.020246349343	462.216653072233	573.499405425828	901.012576053770	765.726787264818	373.733797983625	834.722609241539	634.869459738761	307.043060144073	933.211831518027	571.786504126248	366.173207313504	945.235899007119	500.455505625632	368.830693177011	922.668542264989	427.062504502041	357.592470986954	841.808951361215	309.696694983215	300.449961731905	901.216161186834	197.578258441105	362.485404549059	764.582733208551	383.998899482583	583.875483314037	669.791935482878	306.639504640288	654.104552003156	676.714659568348	203.813045246943	590.757045756785	500.893429857300	66.918159776100	571.094532060182	677.338909174205	99.694345327487	602.822456981532	584.505179576492	48.654172812244	642.297437359732	790.516115761120	36.662016287478	628.581908795692	780.731839268434	38.997157280826	393.473220700663	856.379244356120	36.335237275609	314.490140145318	939.812873487287	97.018086055855	342.883285874555	1067.941972353106	43.815498484045	315.908386133485	649.185881047733	1087.444400339310	242.039929744203	632.964480667132	828.440555882760	277.525164738341	1061.750034214087	1141.860971660578	724.178882295590	1300.730731244713	1172.254853452357	634.220915121298	
38	32.758357142857	641.542314539417	1002.634857871148	527.848600037157	775.824886271405	1423.808479028598	313.516046453841	912.045420440108	1355.348655708499	448.570425557722	871.151496426715	1431.429880505524	634.982125604528	793.476639114071	1488.718391180243	470.390688718248	884.098722335699	928.521235022013	606.035824861023	828.916179216276	959.395956075875	337.360067894182	879.911091899426	716.736999385015	577.021572237677	783.978589532433	619.478718021312	647.004393292108	839.677481372365	554.935339917047	562.278017488625	819.788818115372	462.884156823902	571.832655736172	903.391814744603	765.700061580304	369.397134096676	836.700358532012	634.710305438730	303.167465097749	934.724684545727	571.375287327756	362.853672357820	946.451721708053	499.669950346032	365.975071676502	922.944391397526	426.201209708259	355.362831090744	840.861974857145	309.423031659168	298.939338291817	898.477872355345	197.104991019552	361.930429955049	762.773504937821	385.040188539567	582.443779437400	667.178455093916	308.913442986580	652.857053760039	673.856766663662	205.427080904369	590.449653321830	497.078246332796	69.954913327009	571.178706814340	673.914969410743	100.333502997166	602.973722776229	580.484101029144	50.336135300300	642.307792392948	786.163959399363	36.484675033106	628.608176267848	776.320002950056	39.039324397122	393.493866066771	851.961056059332	36.407805059303	314.534281397017	935.443667206281	96.992723572112	342.959522083504	1063.573649570687	43.504188348191	315.892260888330	654.410272650884	1087.898869186868	234.432612998235	638.845756304933	828.641404556815	268.340178377340	1059.541956563444	1140.471770780169	720.785427795832	1299.674992497276	1167.831025331929	632.845515322974	
39	32.781285714286	643.230393112773	1003.400279351015	520.642173924038	779.219035470659	1424.617191250331	307.910167317165	914.101902230756	1356.160523059683	444.249745015779	871.485102658296	1432.057978427363	630.361741005699	795.319718813347	1489.471043838153	465.154443379165	885.152343609968	929.248047856520	601.109980795660	832.260362332728	959.872624267796	331.953220396977	879.998614951522	717.282014482912	573.526275898387	783.090164965452	621.066766463091	643.747624211722	839.129957281816	555.479622880926	560.036017874304	818.710215051676	463.519602633218	570.191906550364	905.714129814473	765.523171957073	364.913391161516	838.473326911111	634.432644344269	299.251620804005	936.048064945902	570.837017854326	359.432114762964	947.432135337018	498.802587082154	363.025346920488	923.009129748334	425.274390257735	353.068647773045	839.695087412450	309.070853473699	297.424701901236	895.647933677290	196.625454097863	361.325276312131	761.111138062646	386.099620365932	581.044244537235	664.653321613111	311.209299514476	651.586485548968	671.085832862336	207.047420977414	590.151262103868	493.303799468781	73.006605228025	571.268014084462	670.570541203970	100.964614773978	603.155016475175	576.495926034115	52.015184344978	642.331704197251	781.835019689075	36.353191503174	628.623994186495	771.865986175820	39.092496130253	393.527443681746	847.496572850129	36.471936257475	314.587648553923	931.036762877823	96.954123760040	343.023523100467	1059.153015525929	43.178393187601	315.873254074933	659.949861382849	1088.153249928077	226.782832150640	645.421824962004	828.620250114262	258.949976259109	1056.607194277989	1138.676708514984	717.614575066410	1297.972700274728	1162.284510394403	631.912189428613	
40	32.804214285714	644.898005810995	1004.084570790743	513.383629102219	782.555112194111	1425.391368907805	302.310026799718	916.049991671283	1356.975148324767	439.968174728665	871.631846388322	1432.661250817918	625.764453869293	797.055141577238	1490.182643019119	459.902840218309	886.193002406096	929.979112040322	596.171377644159	835.615761766540	960.269435648411	326.540734920761	880.166638063743	717.849298687845	570.049113716620	782.297267762786	622.637118091565	640.455576765329	838.752224874340	556.024737646149	557.819926480418	817.827094575450	464.079787892933	568.599610094385	908.001566775949	765.210815199306	360.337020261409	840.107324192692	634.048596659226	295.320992974366	937.230515078550	570.186201642890	355.961064015035	948.226366582383	497.863686697771	360.034068673635	922.909324593342	424.288274480456	350.747602713549	838.365536309002	308.655105098068	295.902654471084	892.751210428400	196.134804358443	360.681657755080	759.627080853354	387.145253580117	579.693552032731	662.239510472693	313.501136154098	650.301718142194	668.420781231091	208.650396625453	589.866555207674	489.578253861791	76.059981376959	571.367938515994	667.316933932473	101.567422166201	603.376136838690	572.543712311445	53.676405673716	642.371662636740	777.526373064835	36.266658576999	628.628970802326	767.371486510530	39.156409850752	393.566860537963	842.988141859356	36.525199501963	314.642440487596	926.597132978632	96.899099939995	343.071454536220	1054.686013684295	42.833279798338	315.848419577153	665.857706990577	1088.187618810284	219.098180984204	652.865976772270	828.360314935614	249.334488646524	1052.867619682759	1136.448590268356	714.662241882308	1295.523401386894	1155.411795943956	631.448519301598	
41	32.827142857143	646.540253413711	1004.675489120135	506.087926395678	785.814838513598	1426.133577312265	296.732914004817	917.873236355688	1357.790320910721	435.737299906803	871.566519826926	1433.222710185814	621.202794890905	798.655709544412	1490.846528964151	454.654619022573	887.197747588766	930.710581706767	591.232996231408	838.970069838308	960.579829883310	321.142224821162	880.452351844924	718.424213721363	566.601150335897	781.658159578226	624.145129682076	637.131236961453	838.625966075015	556.543774593501	555.626369933672	817.238938715867	464.510682698383	567.065452776652	910.268189945807	764.773920797924	355.718543978345	841.654976209021	633.567709913089	291.401327545024	938.309394488247	569.435190653075	352.492549131794	948.874882334361	496.861955773047	357.054850895100	922.682583571601	423.248975717281	348.437204448947	836.923694195280	308.188127575009	294.373876194767	889.805784157156	195.628988974168	360.014280751790	758.397930328059	388.134303755655	578.395614565402	660.004214754414	315.767392343730	649.003068937944	665.907935901137	210.218082910738	589.595178205228	485.926845374631	79.141068076913	571.483803710705	664.174893495959	102.127036297486	603.646340636216	568.638392900123	55.331350252041	642.430619271069	773.230982014716	36.219230243129	628.624936630041	762.842509400846	39.227579333133	393.605336522240	838.443115753682	36.566099699003	314.691643826294	922.130148956064	96.829480211723	343.101469094884	1050.181659611995	42.475690256002	315.816860967186	672.198658793472	1087.991459217439	211.382535753935	661.348793018967	827.861450907857	239.493588389621	1048.257183520194	1133.779010050694	711.915477472040	1292.220467823088	1147.030694071228	631.484031404050	
